# xmcd CD database file
#
# Track frame offsets:
#	150
#	31622
#	39022
#	68012
#	94984
#	119253
#	145110
#
# Disc length: 2691 seconds
#
# Revision: 1
# Processed by: cddbd v1.5.2PL0 Copyright (c) Steve Scherf et al.
# Submitted via: CDex 1.77
#
DISCID=4e0a8107
DTITLE=Aurora Hentunen - Second Spring
DYEAR=2018
DGENRE=Jazz
TTITLE0=Tunturi
TTITLE1=Trumpet Interlude
TTITLE2=Little Giant
TTITLE3=Waiting For Your Answer
TTITLE4=Ustica
TTITLE5=My Door Will be open
TTITLE6=Kaipuu (For My Father)
EXTD=YEAR: 2018
EXTT0=
EXTT1=
EXTT2=
EXTT3=
EXTT4=
EXTT5=
EXTT6=
PLAYORDER=
